<svg version="1.1" xmlns="http://www.w3.org/2000/svg" viewBox="0 0 436.44273436154845 437.83925695682467" width="1309.3282030846453" height="1313.5177708704741">
  <!-- svg-source:excalidraw -->
  
  <defs>
    <style class="style-fonts">
      @font-face {
        font-family: "Virgil";
        src: url("https://excalidraw.com/Virgil.woff2");
      }
      @font-face {
        font-family: "Cascadia";
        src: url("https://excalidraw.com/Cascadia.woff2");
      }
      @font-face {
        font-family: "Assistant";
        src: url("https://excalidraw.com/Assistant-Regular.woff2");
      }
    </style>
    
  </defs>
  <rect x="0" y="0" width="436.44273436154845" height="437.83925695682467" fill="#ffffff"></rect><g stroke-linecap="round" transform="translate(183.22276292396805 184.34597433454203) rotate(0 38.11762286159046 38.11762286159045)"><path d="M47.11 0.71 C54.36 2.11, 63.46 8.45, 68.4 14.28 C73.33 20.12, 76.37 28.41, 76.74 35.71 C77.11 43.02, 74.89 51.65, 70.61 58.11 C66.33 64.56, 58.14 71.78, 51.09 74.46 C44.04 77.13, 35.32 76.33, 28.31 74.15 C21.29 71.97, 13.65 66.98, 9 61.37 C4.35 55.75, 0.96 47.97, 0.39 40.46 C-0.18 32.95, 1.71 22.66, 5.58 16.29 C9.45 9.93, 16.18 4.7, 23.61 2.25 C31.04 -0.2, 45.62 1.46, 50.17 1.59 C54.73 1.73, 51.38 2.55, 50.95 3.05 M38.18 -1.21 C45.6 -1.7, 54.13 3.22, 60.15 7.4 C66.17 11.57, 71.68 16.86, 74.31 23.83 C76.94 30.8, 77.84 41.56, 75.91 49.2 C73.99 56.83, 68.72 65.31, 62.75 69.65 C56.79 74, 47.88 75.08, 40.12 75.28 C32.35 75.48, 22.26 74.99, 16.18 70.84 C10.09 66.69, 6.03 57.49, 3.6 50.38 C1.16 43.27, -0.09 35, 1.56 28.19 C3.21 21.38, 7.37 14.04, 13.47 9.52 C19.58 5, 34.41 2.69, 38.18 1.08 C41.96 -0.54, 36.5 -0.71, 36.13 -0.19" stroke="#1e1e1e" stroke-width="4" fill="none"></path></g><g stroke-linecap="round" transform="translate(153.6187512036579 153.5500370496187) rotate(0 67.43885668288692 68.44540678263152)"><path d="M58.51 1.6 C67.43 -1.03, 78.19 -0.29, 87.19 2.4 C96.19 5.08, 105.21 10.91, 112.51 17.7 C119.81 24.49, 127.19 33.75, 130.98 43.13 C134.77 52.5, 136.25 63.91, 135.26 73.97 C134.28 84.03, 130.2 95.09, 125.09 103.48 C119.99 111.87, 112.75 118.73, 104.63 124.32 C96.51 129.91, 85.89 135.55, 76.36 137.01 C66.84 138.46, 56.71 136.1, 47.49 133.04 C38.28 129.98, 28.31 125.32, 21.08 118.63 C13.84 111.94, 7.49 102.25, 4.06 92.9 C0.63 83.55, -0.5 72.5, 0.5 62.53 C1.5 52.56, 5.13 41.66, 10.07 33.09 C15.02 24.52, 20.9 16.54, 30.19 11.11 C39.48 5.68, 58.57 2.16, 65.79 0.51 C73.01 -1.14, 73.36 0.09, 73.52 1.22 M78.51 1.03 C87.79 1.64, 97.9 6.38, 105.9 12.05 C113.89 17.73, 121.82 26.4, 126.48 35.08 C131.14 43.77, 133.34 54.28, 133.83 64.15 C134.32 74.02, 132.92 85.23, 129.42 94.29 C125.92 103.35, 120.23 111.67, 112.83 118.52 C105.42 125.36, 94.56 132.34, 85 135.36 C75.43 138.38, 65.16 138.63, 55.43 136.62 C45.7 134.6, 34.73 129.14, 26.61 123.28 C18.49 117.41, 11.16 109.78, 6.72 101.4 C2.27 93.02, 0.29 82.74, -0.03 72.99 C-0.36 63.24, 0.96 52.05, 4.78 42.89 C8.6 33.72, 15.44 24.82, 22.88 17.99 C30.31 11.15, 39.87 4.84, 49.39 1.87 C58.92 -1.1, 74.9 0.11, 80.01 0.17 C85.12 0.24, 80.59 0.74, 80.05 2.26" stroke="#1e1e1e" stroke-width="4" fill="none"></path></g><g stroke-linecap="round" transform="translate(130.74016458182496 128.53587594911022) rotate(0 91.2489332827912 92.61085766014631)"><path d="M108.55 0.94 C119.78 1.75, 131.68 8.57, 141.28 15.11 C150.87 21.66, 159.72 30.65, 166.11 40.22 C172.49 49.8, 176.99 60.92, 179.57 72.54 C182.15 84.17, 183.68 98.22, 181.58 109.99 C179.49 121.76, 173.29 133.25, 167 143.18 C160.71 153.11, 153.31 163.01, 143.84 169.55 C134.38 176.08, 121.86 180.19, 110.21 182.41 C98.56 184.62, 85.46 184.85, 73.93 182.83 C62.4 180.8, 50.49 176.43, 41.01 170.26 C31.53 164.09, 23.6 155.48, 17.04 145.8 C10.47 136.13, 4.12 123.75, 1.63 112.21 C-0.87 100.67, -0.03 88.3, 2.05 76.56 C4.14 64.82, 7.74 51.68, 14.14 41.76 C20.55 31.84, 30.85 23.77, 40.47 17.04 C50.1 10.32, 59.01 3.47, 71.91 1.4 C84.8 -0.67, 108.88 3.25, 117.85 4.62 C126.82 6, 126.25 8.13, 125.74 9.65 M88.98 -0.01 C100 -1.73, 111.75 1.55, 122.43 5.85 C133.11 10.16, 144.36 17.56, 153.04 25.83 C161.72 34.09, 169.56 44.66, 174.51 55.46 C179.46 66.27, 182.37 78.96, 182.73 90.63 C183.09 102.31, 180.88 114.74, 176.68 125.51 C172.48 136.27, 165.49 146.64, 157.54 155.22 C149.58 163.81, 139.78 172.26, 128.95 177.02 C118.12 181.78, 104.09 183.31, 92.53 183.79 C80.98 184.28, 70.32 184.01, 59.62 179.91 C48.93 175.8, 37.08 167.65, 28.37 159.19 C19.67 150.73, 12.3 139.95, 7.39 129.14 C2.48 118.34, -0.65 106.02, -1.07 94.33 C-1.49 82.64, 0.45 70.04, 4.86 59.01 C9.27 47.98, 17.26 36.82, 25.38 28.13 C33.51 19.45, 42.86 11.78, 53.61 6.88 C64.37 1.99, 83.86 -0.31, 89.92 -1.23 C95.98 -2.16, 90 -0.48, 89.96 1.32" stroke="#1e1e1e" stroke-width="4" fill="none"></path></g><g stroke-linecap="round" transform="translate(107.38682607489181 101.28185931554148) rotate(0 113.43743203288682 117.76308583901884)"><path d="M97.19 1.59 C109.06 -1.88, 123.69 -0.26, 136.56 2.45 C149.43 5.16, 163.3 10.56, 174.41 17.87 C185.52 25.18, 195.38 35.49, 203.21 46.3 C211.03 57.1, 217.58 70.04, 221.35 82.7 C225.12 95.36, 226.44 108.85, 225.83 122.24 C225.21 135.64, 222.26 150.74, 217.67 163.07 C213.08 175.4, 206.82 186.32, 198.3 196.22 C189.78 206.11, 178.16 216.14, 166.57 222.44 C154.97 228.73, 141.62 232.18, 128.71 234 C115.8 235.82, 101.57 236.26, 89.11 233.35 C76.66 230.44, 64.83 223.85, 53.96 216.54 C43.09 209.24, 31.93 200.09, 23.88 189.53 C15.84 178.97, 9.82 165.91, 5.68 153.2 C1.55 140.49, -1.42 126.63, -0.92 113.26 C-0.41 99.89, 3.68 85.38, 8.7 73 C13.72 60.62, 20.71 48.86, 29.19 38.98 C37.67 29.1, 46.01 20.15, 59.57 13.73 C73.13 7.31, 100.1 2.23, 110.57 0.49 C121.04 -1.25, 122.44 1.3, 122.37 3.3 M81.47 6.31 C92.48 0.56, 105.58 -1.5, 118.41 -0.8 C131.24 -0.1, 146.51 4.97, 158.46 10.48 C170.4 15.99, 180.97 23.06, 190.09 32.27 C199.21 41.48, 207.14 53.57, 213.18 65.73 C219.22 77.89, 224.41 92, 226.34 105.24 C228.27 118.49, 227.77 132.34, 224.74 145.19 C221.71 158.05, 215.39 171.43, 208.17 182.39 C200.95 193.35, 191.62 202.9, 181.44 210.96 C171.25 219.02, 159.25 226.57, 147.06 230.76 C134.87 234.94, 121.54 236.74, 108.29 236.09 C95.04 235.43, 79.72 232.37, 67.55 226.83 C55.37 221.29, 44.31 212.05, 35.24 202.85 C26.18 193.64, 18.97 183.71, 13.17 171.63 C7.36 159.54, 1.95 143.75, 0.41 130.35 C-1.12 116.94, 1.04 103.89, 3.96 91.18 C6.88 78.47, 10.84 65.44, 17.95 54.08 C25.05 42.72, 36.11 31.07, 46.6 23.01 C57.09 14.94, 75.26 8.33, 80.89 5.7 C86.52 3.06, 79.99 5.46, 80.4 7.2" stroke="#1e1e1e" stroke-width="4" fill="none"></path></g><g stroke-linecap="round"><g transform="translate(357.49038044555573 258.5837782743509) rotate(86.76409522286231 30.706302278341695 -34.20970589399133)"><path d="M0.09 0.63 C4.61 -11.11, 17.79 -71.43, 27.9 -71.12 C38.02 -70.8, 65.45 -10.09, 60.78 2.51 C56.11 15.11, 10.22 4.24, -0.11 4.5 M-1.33 -0.09 C3.03 -12.08, 16.58 -73.29, 27.32 -72.71 C38.06 -72.12, 67.63 -9.09, 63.13 3.42 C58.62 15.93, 10.72 2.16, 0.3 2.35" stroke="#1e1e1e" stroke-width="4" fill="none"></path></g></g><mask></mask><g stroke-linecap="round"><g transform="translate(17.150018880584184 255.06144207700385) rotate(261.78959262312816 30.706302278341695 -34.20970589399133)"><path d="M0.86 0.53 C5.15 -11.69, 16.15 -73.72, 26.13 -73.11 C36.11 -72.5, 65.18 -8.43, 60.72 4.2 C56.25 16.84, 9.67 2.93, -0.66 2.69 M-0.15 -0.24 C4.47 -12.36, 17.75 -72.52, 28.28 -72.09 C38.81 -71.66, 67.84 -10.22, 63.03 2.34 C58.23 14.9, 9.89 3.2, -0.54 3.26" stroke="#1e1e1e" stroke-width="4" fill="none"></path></g></g><mask></mask><g stroke-linecap="round"><g transform="translate(200.46831413257632 83.39128694045871) rotate(4.727483450985003 30.706302278341695 -34.20970589399133)"><path d="M0.84 -0.82 C5.32 -12.84, 17.19 -73.87, 27.22 -73.21 C37.24 -72.55, 65.42 -9.59, 61 3.12 C56.59 15.83, 10.81 2.86, 0.72 3.06 M-0.18 1.37 C4.12 -10.46, 15.67 -72.73, 26.28 -72.24 C36.88 -71.74, 68.2 -8.33, 63.47 4.34 C58.74 17.02, 8.57 3.71, -2.09 3.82" stroke="#1e1e1e" stroke-width="4" fill="none"></path></g></g><mask></mask><g stroke-linecap="round"><g transform="translate(187.6409038918248 423.22355880079255) rotate(180.92727499911751 30.706302278341695 -34.20970589399133)"><path d="M0.87 -1.01 C5.34 -13.23, 17.09 -73.84, 27.35 -72.97 C37.61 -72.1, 67.24 -8.58, 62.43 4.19 C57.62 16.96, 8.82 3.74, -1.51 3.65 M-0.12 1.07 C4.14 -11.04, 16.13 -72.09, 26.48 -71.88 C36.83 -71.67, 66.71 -10.45, 61.99 2.32 C57.27 15.09, 8.59 4.44, -1.84 4.72" stroke="#1e1e1e" stroke-width="4" fill="none"></path></g></g><mask></mask><g stroke-linecap="round"><g transform="translate(306.03738752226127 376.66887168926047) rotate(136.71955446016068 30.706302278341695 -34.20970589399133)"><path d="M0.62 1.03 C5.03 -11.16, 16.07 -72.71, 26.31 -72.32 C36.55 -71.93, 66.69 -9.1, 62.05 3.37 C57.41 15.85, 8.96 2.58, -1.53 2.53 M-0.52 0.53 C4.28 -11.55, 18.24 -71.59, 28.56 -70.89 C38.88 -70.19, 66.48 -7.59, 61.41 4.73 C56.33 17.05, 8.18 3.29, -1.87 3.02" stroke="#1e1e1e" stroke-width="4" fill="none"></path></g></g><mask></mask><g stroke-linecap="round"><g transform="translate(320.75027811488917 143.48371710967265) rotate(55.24409322747561 30.706302278341695 -34.20970589399133)"><path d="M-1.16 0.63 C3.39 -11.23, 17.18 -71.47, 27.75 -71.19 C38.31 -70.91, 66.77 -10.22, 62.23 2.32 C57.7 14.86, 11.07 4.02, 0.54 4.07 M0.44 -0.09 C4.83 -12.27, 16.88 -73.36, 27.09 -72.82 C37.3 -72.29, 65.98 -9.9, 61.68 3.13 C57.38 16.16, 11.41 5.48, 1.28 5.36" stroke="#1e1e1e" stroke-width="4" fill="none"></path></g></g><mask></mask><g stroke-linecap="round"><g transform="translate(64.94324869068873 131.98009038827982) rotate(301.10518528614654 30.706302278341695 -34.20970589399133)"><path d="M-0.94 1 C3.52 -11.07, 17.06 -72.47, 27.45 -72.15 C37.83 -71.83, 66.1 -9.62, 61.35 2.92 C56.61 15.46, 9.45 2.81, -1.04 3.11 M0.76 0.48 C5.03 -11.41, 16.7 -71.21, 26.63 -70.62 C36.56 -70.03, 64.96 -8.38, 60.34 4.04 C55.72 16.46, 8.93 4.24, -1.12 3.9" stroke="#1e1e1e" stroke-width="4" fill="none"></path></g></g><mask></mask><g stroke-linecap="round"><g transform="translate(67.4026237424846 366.3387783123133) rotate(221.39464087866415 30.706302278341695 -34.20970589399133)"><path d="M1.06 0.63 C5.48 -11.67, 16.74 -73.31, 26.89 -72.99 C37.05 -72.67, 66.61 -10.12, 61.98 2.57 C57.34 15.26, 9.65 2.78, -0.93 3.16 M0.15 -0.08 C4.36 -12.33, 15.59 -72.5, 25.78 -71.9 C35.97 -71.31, 65.74 -9.14, 61.29 3.51 C56.83 16.15, 9.24 4.2, -0.95 3.97" stroke="#1e1e1e" stroke-width="4" fill="none"></path></g></g><mask></mask></svg>